Coordinates
version=1
nRows=8
nColumns=36
inDegrees=yes

Units are S.I. units (second, meters, Newtons, ...)
If the header above contains a line with 'inDegrees', this indicates whether rotational values are in degrees (yes) or radians (no).

endheader
time	pelvis_tilt	pelvis_list	pelvis_rotation	pelvis_tx	pelvis_ty	pelvis_tz	hip_flexion_r	hip_adduction_r	hip_rotation_r	knee_angle_r	knee_angle_r_beta	ankle_angle_r	subtalar_angle_r	mtp_angle_r	hip_flexion_l	hip_adduction_l	hip_rotation_l	knee_angle_l	knee_angle_l_beta	ankle_angle_l	subtalar_angle_l	mtp_angle_l	lumbar_extension	lumbar_bending	lumbar_rotation	arm_flex_r	arm_add_r	arm_rot_r	elbow_flex_r	pro_sup_r	arm_flex_l	arm_add_l	arm_rot_l	elbow_flex_l	pro_sup_l
      0.85000000	     -3.77563643	      5.90409782	     -1.14745505	      0.70645033	      0.91658473	     -0.19163043	     -8.76786564	     -6.51104033	     -1.01348245	     34.74111786	      0.60634689	      4.68982438	      0.74100483	     -6.95778022	     27.03552158	      5.41123783	      0.21619606	     22.77534679	      0.39750479	     -2.59485350	     -9.96415940	     -6.95778022	     -5.52907457	    -22.10621174	      0.38325525	     -3.37564512	     -9.94554004	     28.10631323	     36.76448920	    105.98356923	     -8.80295425	    -11.56856160	    -12.51960302	     28.13095681	     92.56987367
      0.86000000	     -3.74902225	      6.12131045	     -1.47794955	      0.71678147	      0.91739508	     -0.19216932	     -7.35688299	     -6.89202219	     -0.53057280	     37.91805194	      0.66179485	      2.86461365	     -0.51810867	     -6.96611757	     26.53762942	      5.63672370	      0.09189753	     23.32728871	      0.40713799	     -1.73641955	    -10.37037973	     -6.96611757	     -5.45944844	    -22.94832098	      0.69904943	     -3.39126795	    -10.20170172	     28.98898658	     36.91698338	    106.09508071	     -7.93844087	    -11.83458738	    -12.51556046	     27.88577279	     92.57291108
      0.87000000	     -3.77488041	      6.12680043	     -1.87460778	      0.72674289	      0.91828909	     -0.19244088	     -5.81785506	     -6.93899446	      0.11783367	     41.00676628	      0.71570309	      0.85451006	     -2.51764844	     -6.98668036	     26.07917983	      5.56504452	     -0.17673507	     23.81727886	      0.41568993	     -0.92389190	    -10.46967475	     -6.98668036	     -5.29616894	    -23.51929629	      1.02713988	     -3.13805170	    -10.58545396	     30.56437986	     36.85605516	    106.27812627	     -7.09072576	    -12.03746829	    -12.47158823	     27.64775070	     92.64440174
      0.88000000	     -3.70139278	      6.35193560	     -2.32225573	      0.73648095	      0.91942418	     -0.19281404	     -4.29674025	     -7.31111746	      0.55135979	     44.13871881	      0.77036597	     -0.28237956	     -3.60652784	     -6.99379930	     25.34007975	      5.77611458	     -0.38926224	     23.91956037	      0.41747508	     -0.10205448	    -10.69599354	     -6.99379930	     -5.27886433	    -24.29392986	      1.44058513	     -3.04389068	    -10.85584441	     31.27953775	     37.05284964	    106.39173068	     -6.23348559	    -12.17889819	    -12.61650100	     27.82727394	     92.66872697
      0.89000000	     -3.76147159	      6.47246118	     -2.80601339	      0.74586970	      0.92051771	     -0.19294412	     -2.56695732	     -7.48737885	      1.05597098	     47.15977528	      0.82309335	     -1.29234828	     -5.19372421	     -7.00178988	     24.73794671	      5.82298081	     -0.66280676	     23.96819909	      0.41832399	      0.58045434	    -10.81006380	     -7.00178988	     -5.06812801	    -24.93249650	      1.92449450	     -2.87392644	    -11.16062574	     32.16770487	     37.23894293	    106.54690245	     -5.41397644	    -12.28992700	    -12.86097481	     28.07149257	     92.68778973
      0.90000000	     -3.85541548	      6.42814448	     -3.19994735	      0.75501191	      0.92173487	     -0.19305960	     -0.86367525	     -7.35844610	      1.58574930	     49.87360765	      0.87045866	     -2.44176098	     -7.32881338	     -7.02309488	     24.19042760	      5.70728306	     -0.91764350	     24.04500472	      0.41966450	      1.24949274	    -10.67710084	     -7.02309488	     -4.86108734	    -25.35064584	      2.09691175	     -2.43936929	    -11.47889038	     33.60716864	     37.13239840	    106.78955545	     -4.77936701	    -12.30225220	    -13.50206813	     28.57560080	     92.70585325
      0.91000000	     -3.83477073	      6.50306134	     -3.51925169	      0.76402400	      0.92323118	     -0.19337837	      0.69109586	     -7.43797615	      1.86943567	     52.40055874	      0.91456228	     -2.49888911	     -8.43159671	     -7.02911246	     23.37526512	      5.82187957	     -0.96938309	     23.79651198	      0.41532748	      1.84941579	    -10.77994418	     -7.02911246	     -4.86878233	    -25.85346988	      2.29792655	     -2.22393804	    -11.67652804	     34.00986541	     37.28079334	    106.86879988	     -4.03424705	    -12.35449140	    -13.68357271	     29.17932201	     92.73254557
      0.92000000	     -3.96773243	      6.39096083	     -3.75616000	      0.77279392	      0.92466805	     -0.19364622	      2.37670773	     -7.21362168	      2.14719971	     54.63320351	      0.95352928	     -2.82136442	     -9.86641950	     -7.04629691	     22.78658878	      5.72595188	     -1.00391307	     23.64511936	      0.41268518	      2.25247217	    -10.76935528	     -7.04629691	     -4.71759880	    -26.13107371	      2.31112173	     -1.87924673	    -11.87527986	     34.68857732	     37.30850819	    107.00571077	     -3.51164112	    -12.30471395	    -14.32962339	     30.12833688	     92.67890680
